<?xml version="1.0" encoding="UTF-8"?>
<svg width="200" height="200" viewBox="0 0 200 200" fill="none" xmlns="http://www.w3.org/2000/svg">
  <!-- Background circle with gradient -->
  <circle cx="100" cy="100" r="100" fill="url(#paint0_radial)" />
  
  <!-- Doctor coat -->
  <rect x="50" y="80" width="100" height="110" rx="10" fill="white" />
  <rect x="50" y="80" width="100" height="110" rx="10" stroke="#F0F0F0" stroke-width="2" />
  
  <!-- Head with professional appearance -->
  <circle cx="100" cy="60" r="40" fill="#FFF8E1" stroke="#FFECB3" stroke-width="2" />
  
  <!-- Professional hairstyle -->
  <path d="M60 60C60 37.9086 77.9086 20 100 20C122.091 20 140 37.9086 140 60V70H60V60Z" fill="#B45309" />
  
  <!-- Professional glasses -->
  <line x1="70" y1="70" x2="130" y2="70" stroke="#374151" stroke-width="2" />
  <circle cx="80" cy="70" r="12" stroke="#374151" stroke-width="1.5" fill="none" />
  <circle cx="120" cy="70" r="12" stroke="#374151" stroke-width="1.5" fill="none" />
  
  <!-- Stethoscope -->
  <path d="M70 100H130" stroke="#F59E0B" stroke-width="2" />
  <path d="M100 100V120" stroke="#F59E0B" stroke-width="2" />
  <circle cx="100" cy="130" r="10" fill="#FBBF24" stroke="#F59E0B" stroke-width="2" />
  
  <!-- Name badge -->
  <rect x="120" y="110" width="25" height="15" rx="2" fill="#FEF3C7" stroke="#FBBF24" stroke-width="1" />
  <line x1="125" y1="117.5" x2="140" y2="117.5" stroke="#B45309" stroke-width="2" />
  
  <!-- Professional smile -->
  <path d="M90 80C90 80 95 90 110 90" stroke="#B45309" stroke-width="2" stroke-linecap="round" />
  
  <!-- Sun icon as a pin/badge -->
  <circle cx="70" cy="110" r="12" fill="#FBBF24" stroke="#F59E0B" stroke-width="2" />
  <circle cx="70" cy="110" r="8" fill="#FCD34D" />
  
  <!-- Radial gradient definition -->
  <defs>
    <radialGradient id="paint0_radial" cx="0" cy="0" r="1" gradientUnits="userSpaceOnUse" gradientTransform="translate(100 100) rotate(90) scale(100)">
      <stop offset="0" stop-color="#FCD34D" />
      <stop offset="1" stop-color="#FEF3C7" />
    </radialGradient>
  </defs>
</svg>
